#!OML:ASF E:\Steps\Project 1\Capture day 1\Session 2\Subject.ASF
:FULLY-SPECIFIED
:DEGREES
770
root 8.75693 22.456 -17.8826 -154.612 4.39393 180.643
lowerback -22.0195 -2.68297 -6.65852
upperback 0.565204 -1.27858 -1.83189
thorax 13.202 -0.836758 1.33624
lowerneck -2.6821 -2.23985 -1.49571
upperneck 19.9445 -2.48342 4.37303
head 6.56568 -0.488881 1.54842
rclavicle -4.33351e-014 -9.54166e-015
rhumerus -44.9662 -10.3337 -75.5439
rradius 36.6065
rwrist -3.62131
rhand -5.65346 -56.3022
rfingers 7.12502
rthumb 20.1655 -85.2756
lclavicle -4.33351e-014 -9.54166e-015
lhumerus -22.2869 -5.31173 78.6344
lradius 36.89
lwrist 1.1526
lhand -22.0441 -14.0307
lfingers 7.12502
lthumb 4.36623 15.9043
rfemur -35.9896 -1.40659 21.4492
rtibia 57.2328
rfoot -5.67103 -5.82908
rtoes -41.6998
lfemur -41.5675 -5.48656 -19.4769
ltibia 25.4831
lfoot -9.60175 2.71398
ltoes -32.2676
771
root 8.74741 22.4763 -17.9335 -154.575 4.1115 180.793
lowerback -22.1504 -2.86671 -6.46322
upperback 0.500352 -1.57837 -1.71819
thorax 13.22 -0.963971 1.25208
lowerneck -2.43523 -2.13962 -1.39989
upperneck 19.7897 -2.30812 4.10907
head 6.46348 -0.425008 1.4585
rclavicle 1.31198e-014 -3.18055e-015
rhumerus -45.2842 -10.7214 -74.9812
rradius 36.394
rwrist -3.52827
rhand -5.55745 -56.2001
rfingers 7.12502
rthumb 20.2577 -85.1637
lclavicle 1.31198e-014 -3.18055e-015
lhumerus -22.0762 -5.34754 78.6721
lradius 36.6982
lwrist 1.44459
lhand -21.5927 -13.5185
lfingers 7.12502
lthumb 4.80203 16.4071
rfemur -36.8809 -1.6924 21.7892
rtibia 58.4243
rfoot -6.63759 -6.50331
rtoes -41.9106
lfemur -41.1791 -5.71917 -19.3035
ltibia 25.1082
lfoot -9.59704 2.71725
ltoes -31.3927
772
root 8.73809 22.4948 -17.9864 -154.7 4.08145 180.756
lowerback -22.2217 -3.01268 -6.47392
upperback 0.574881 -1.76214 -1.71426
thorax 13.3625 -1.05379 1.19532
lowerneck -2.83386 -2.00893 -1.2653
upperneck 19.912 -2.13909 3.9782
head 6.56458 -0.344779 1.40308
rclavicle 1.23246e-014 -9.54166e-015
rhumerus -45.3258 -11.3161 -74.4516
rradius 35.942
rwrist -3.32406
rhand -5.69931 -55.682
rfingers 7.12502
rthumb 20.1214 -84.66
lclavicle 1.23246e-014 -9.54166e-015
lhumerus -21.8134 -5.3691 78.6477
lradius 36.6232
lwrist 1.48691
lhand -21.462 -13.1232
lfingers 7.12502
lthumb 4.92826 16.7995
rfemur -37.5816 -1.85701 21.87
rtibia 59.537
rfoot -7.33483 -7.19993
rtoes -42.6243
lfemur -40.5241 -5.85625 -19.4056
ltibia 24.5613
lfoot -9.44269 2.92802
ltoes -31.9899
773
root 8.73377 22.5156 -18.0318 -154.918 4.06304 180.828
lowerback -22.1103 -3.06221 -6.43093
upperback 0.585433 -1.85679 -1.68614
thorax 13.3173 -1.09682 1.17373
lowerneck -3.11877 -1.89703 -1.19197
upperneck 20.0451 -1.98723 3.90049
head 6.65149 -0.269467 1.37552
rclavicle -1.63003e-014 -2.06736e-014
rhumerus -45.7078 -11.8735 -73.8807
rradius 35.6141
rwrist -3.21924
rhand -5.80154 -55.7094
rfingers 7.12502
rthumb 20.0231 -84.6977
lclavicle -1.63003e-014 -2.06736e-014
lhumerus -21.7333 -5.5417 78.709
lradius 36.6215
lwrist 1.53864
lhand -21.7601 -13.4346
lfingers 7.12502
lthumb 4.64045 16.4946
rfemur -38.1685 -1.87536 22.0697
rtibia 60.6154
rfoot -8.46603 -7.84022
rtoes -44.0003
lfemur -39.8391 -5.82685 -19.3546
ltibia 24.0466
lfoot -9.4298 3.06828
ltoes -33.36
774
root 8.72179 22.5331 -18.0739 -155.007 3.89461 180.824
lowerback -22.0657 -3.19938 -6.37599
upperback 0.559353 -2.06199 -1.64951
thorax 13.2756 -1.18688 1.11725
lowerneck -3.28338 -1.84922 -1.50651
upperneck 20.3364 -1.95347 4.3505
head 6.78012 -0.224647 1.57932
rclavicle -1.74931e-014 -4.45278e-014
rhumerus -46.1566 -12.2042 -73.3767
rradius 35.4613
rwrist -3.17205
rhand -5.74666 -55.8836
rfingers 7.12502
rthumb 20.0759 -84.8664
lclavicle -1.74931e-014 -4.45278e-014
lhumerus -21.7346 -5.4054 78.7291
lradius 36.6958
lwrist 1.4699
lhand -21.968 -13.874
lfingers 7.12502
lthumb 4.43965 16.0595
rfemur -38.8391 -1.90979 22.0599
rtibia 61.0738
rfoot -9.29613 -8.13311
rtoes -42.0133
lfemur -39.2936 -5.96551 -19.4333
ltibia 23.5654
lfoot -9.594 2.96427
ltoes -33.9835
775
root 8.71058 22.5452 -18.1264 -155.098 3.83959 180.823
lowerback -22.0849 -3.30555 -6.35884
upperback 0.519374 -2.20887 -1.61493
thorax 13.2514 -1.25189 1.09798
lowerneck -2.69941 -1.92852 -1.21218
upperneck 19.9745 -2.00719 3.88741
head 6.55592 -0.280259 1.37504
rclavicle -3.22031e-014 -3.18055e-014
rhumerus -46.4684 -12.6591 -72.7838
rradius 35.0398
rwrist -2.93104
rhand -5.88685 -55.7175
rfingers 7.12502
rthumb 19.9411 -84.7144
lclavicle -3.22031e-014 -3.18055e-014
lhumerus -21.8196 -5.1788 78.7633
lradius 36.7344
lwrist 1.33395
lhand -21.675 -13.7036
lfingers 7.12502
lthumb 4.72258 16.2237
rfemur -39.4489 -1.92307 22.0838
rtibia 61.7499
rfoot -10.3728 -8.55759
rtoes -41.4956
lfemur -38.5856 -6.06418 -19.5433
ltibia 22.865
lfoot -9.73825 2.89168
ltoes -34.3279
776
root 8.70945 22.5608 -18.1779 -155.226 3.99453 180.822
lowerback -22.0911 -3.32301 -6.49277
upperback 0.494658 -2.19979 -1.5854
thorax 13.233 -1.25669 1.21102
lowerneck -2.78105 -1.88541 -1.314
upperneck 20.0852 -1.95844 4.03397
head 6.60661 -0.246781 1.44354
rclavicle -1.59028e-015 -9.54166e-015
rhumerus -47.0423 -12.8512 -72.404
rradius 35.1319
rwrist -3.04504
rhand -6.01184 -55.938
rfingers 7.12502
rthumb 19.821 -84.9473
lclavicle -1.59028e-015 -9.54166e-015
lhumerus -21.675 -5.29169 78.8656
lradius 36.4874
lwrist 1.31329
lhand -21.5404 -13.656
lfingers 7.12502
lthumb 4.85258 16.2684
rfemur -40.063 -1.64674 22.0752
rtibia 62.396
rfoot -11.4325 -9.09168
rtoes -42.1331
lfemur -37.9009 -5.99862 -19.5841
ltibia 22.2187
lfoot -9.69035 2.96624
ltoes -34.5222
777
root 8.70452 22.5757 -18.2193 -155.345 3.93579 180.936
lowerback -22.0055 -3.36661 -6.42434
upperback 0.456407 -2.30201 -1.49048
thorax 13.1478 -1.30304 1.24954
lowerneck -2.64328 -1.80995 -1.37733
upperneck 20.0688 -1.83133 3.98541
head 6.57369 -0.192725 1.44742
rclavicle -1.47101e-014 -1.27222e-014
rhumerus -47.3695 -13.3858 -71.8356
rradius 34.8665
rwrist -2.64727
rhand -6.14395 -55.899
rfingers 7.12502
rthumb 19.694 -84.9214
lclavicle -1.47101e-014 -1.27222e-014
lhumerus -21.529 -5.353 79.0022
lradius 36.2191
lwrist 1.41376
lhand -21.6375 -13.9591
lfingers 7.12502
lthumb 4.75883 15.9674
rfemur -40.5593 -1.32686 22.1078
rtibia 62.4296
rfoot -12.2773 -9.19986
rtoes -41.3027
lfemur -37.4187 -6.07894 -19.4633
ltibia 21.8722
lfoot -9.44864 3.04281
ltoes -34.1828
778
root 8.69618 22.589 -18.2654 -155.487 3.89629 180.994
lowerback -21.9842 -3.43811 -6.34259
upperback 0.428777 -2.42861 -1.44159
thorax 13.1111 -1.357 1.21769
lowerneck -3.04674 -1.66354 -1.39671
upperneck 20.4256 -1.61012 3.91876
head 6.75257 -0.0793371 1.44676
rclavicle 1.31198e-014 -6.36111e-015
rhumerus -47.5315 -13.9178 -71.2991
rradius 34.2049
rwrist -2.09053
rhand -6.30137 -55.4042
rfingers 7.12502
rthumb 19.5426 -84.442
lclavicle 1.31198e-014 -6.36111e-015
lhumerus -21.592 -5.13802 79.0826
lradius 36.1748
lwrist 1.36374
lhand -21.7303 -14.0861
lfingers 7.12502
lthumb 4.66924 15.8424
rfemur -40.9427 -1.13508 22.1243
rtibia 62.4669
rfoot -13.0439 -9.41577
rtoes -41.3147
lfemur -36.8521 -6.22343 -19.4402
ltibia 21.4774
lfoot -9.36009 3.12234
ltoes -34.0221
